<svg xmlns="http://www.w3.org/2000/svg" viewBox="0 0 192 100" role="img" aria-label="heis"><g fill="#101113"><g transform="translate(0 76) scale(.1 -.1)"><path transform="translate(0 0)" d="M68.0689697265625 0V720H180.06890869140625V424.7930908203125Q204.7470703125 466.25286865234375 248.3160400390625 491.1264343261719Q291.885009765625 516 346.20684814453125 516Q406.78155517578125 516 449.9424743652344 491.0517272949219Q493.1033935546875 466.10345458984375 515.459716796875 416.6551818847656Q537.8160400390625 367.2069091796875 537.8160400390625 294.2069091796875V0H426.81610107421875V283.27587890625Q426.81610107421875 350.58624267578125 398.5172424316406 385.86785888671875Q370.2183837890625 421.14947509765625 313.40228271484375 421.14947509765625Q275.55169677734375 421.14947509765625 245.235595703125 402.5632629394531Q214.91949462890625 383.97705078125 197.49420166015625 349.9655456542969Q180.06890869140625 315.95404052734375 180.06890869140625 267V0Z"/><path transform="translate(574 0)" d="M300.011474609375 -12Q226.11492919921875 -12 169.84481811523438 20.839080810546875Q113.57470703125 53.67816162109375 81.77011108398438 112.69540405273438Q49.96551513671875 171.712646484375 49.96551513671875 249.42529296875Q49.96551513671875 328.7816162109375 81.10919189453125 388.5862121582031Q112.25286865234375 448.39080810546875 169.362060546875 482.1954040527344Q226.47125244140625 516 301.04595947265625 516Q376.011474609375 516 429.76434326171875 483.1609191894531Q483.5172119140625 450.32183837890625 513.1091613769531 395.3735656738281Q542.7011108398438 340.42529296875 542.7011108398438 272.24139404296875Q542.7011108398438 262.24139404296875 542.5401916503906 250.59771728515625Q542.3792724609375 238.95404052734375 541.0574340820312 225.27587890625H131.310302734375V299.9310302734375H431.09197998046875Q428.09197998046875 357.3448486328125 391.7069091796875 390.7126770019531Q355.32183837890625 424.08050537109375 300.33331298828125 424.08050537109375Q261.83905029296875 424.08050537109375 229.68386840820312 406.51153564453125Q197.5286865234375 388.94256591796875 178.7470703125 354.5000305175781Q159.9654541015625 320.0574951171875 159.9654541015625 268.24139404296875V239.59771728515625Q159.9654541015625 189.18389892578125 178.44247436523438 153.45974731445312Q196.91949462890625 117.735595703125 228.75283813476562 99.14938354492188Q260.586181640625 80.56317138671875 299.3677978515625 80.56317138671875Q344 80.56317138671875 373.02874755859375 99.8792724609375Q402.0574951171875 119.19537353515625 415.44830322265625 150.82757568359375H528.3792724609375Q515.735595703125 104.862060546875 483.9654846191406 67.73562622070312Q452.19537353515625 30.60919189453125 405.9252624511719 9.304595947265625Q359.6551513671875 -12 300.011474609375 -12Z"/><path transform="translate(1136 0)" d="M73.17242431640625 0V504H185.17236328125V0ZM129.33331298828125 590.0805053710938Q97.89654541015625 590.0805053710938 77.69540405273438 609.47705078125Q57.4942626953125 628.8735961914062 57.4942626953125 658.0574951171875Q57.4942626953125 687.563232421875 77.69540405273438 706.2816162109375Q97.89654541015625 725 129.33331298828125 725Q160.41375732421875 725 180.9539794921875 706.2816162109375Q201.49420166015625 687.563232421875 201.49420166015625 658.0574951171875Q201.49420166015625 628.8735961914062 180.9539794921875 609.47705078125Q160.41375732421875 590.0805053710938 129.33331298828125 590.0805053710938Z"/><path transform="translate(1370 0)" d="M266.75860595703125 -12Q199.89654541015625 -12 151.30459594726562 9.804595947265625Q102.712646484375 31.60919189453125 74.40805053710938 69.59194946289062Q46.10345458984375 107.57470703125 41.0689697265625 157.60919189453125H153.78155517578125Q158.13787841796875 135.7930908203125 171.885009765625 117.49423217773438Q185.63214111328125 99.19537353515625 209.10916137695312 87.9482421875Q232.586181640625 76.70111083984375 266.1494140625 76.70111083984375Q296.32183837890625 76.70111083984375 316.42529296875 85.5919189453125Q336.52874755859375 94.48272705078125 346.4195556640625 109.586181640625Q356.31036376953125 124.68963623046875 356.31036376953125 141.82757568359375Q356.31036376953125 167.67816162109375 343.09771728515625 180.94253540039062Q329.88507080078125 194.2069091796875 304.2988586425781 202.58047485351562Q278.712646484375 210.95404052734375 242.57470703125 217.6322021484375Q208.287353515625 224.59771728515625 174.83908081054688 234.59771728515625Q141.39080810546875 244.59771728515625 115.10345458984375 261.09771728515625Q88.81610107421875 277.59771728515625 73.67242431640625 302.0804748535156Q58.52874755859375 326.563232421875 58.52874755859375 362.52874755859375Q58.52874755859375 406.4942626953125 81.65518188476562 441.2816162109375Q104.7816162109375 476.0689697265625 148.8563232421875 496.03448486328125Q192.9310302734375 516 252.75860595703125 516Q339.55169677734375 516 391.3218078613281 475.8735656738281Q443.0919189453125 435.74713134765625 452.735595703125 362.712646484375H345.59771728515625Q339.95404052734375 392.988525390625 316.31610107421875 409.9827880859375Q292.67816162109375 426.97705078125 252.0804443359375 426.97705078125Q211.19537353515625 426.97705078125 189.91375732421875 411.3563537597656Q168.63214111328125 395.73565673828125 168.63214111328125 370.52874755859375Q168.63214111328125 353.74713134765625 181.32754516601562 340.6609191894531Q194.02294921875 327.57470703125 218.43099975585938 318.18389892578125Q242.83905029296875 308.7930908203125 278.9425048828125 302.11492919921875Q333.4482421875 291.5057373046875 375.8965148925781 276.3448181152344Q418.34478759765625 261.18389892578125 443.84478759765625 232.0057373046875Q469.34478759765625 202.82757568359375 469.34478759765625 149.1494140625Q469.34478759765625 101.18389892578125 444.55743408203125 65.05746459960938Q419.77008056640625 28.9310302734375 374.0344543457031 8.46551513671875Q328.298828125 -12 266.75860595703125 -12Z"/></g></g></svg>
